PathFileType	4	(X/Y/Z)	65_2_59_p1_0-260_filt_butterworth.trc
DataRate	CameraRate	NumFrames	NumMarkers	Units	OrigDataRate	OrigDataStartFrame	OrigNumFrames
59.0	59.0	6	27	m	59.0	65	260
Frame#	Time	RHip			RKnee			RAnkle			RBigToe			RSmallToe			RHeel			LHip			LKnee			LAnkle			LBigToe			LSmallToe			LHeel			Neck			Head			Nose			RShoulder			RElbow			RWrist			RThumb			RIndex			RPinky			LShoulder			LElbow			LWrist			LThumb			LIndex			LPinky			
		X1	Y1	Z1	X2	Y2	Z2	X3	Y3	Z3	X4	Y4	Z4	X5	Y5	Z5	X6	Y6	Z6	X7	Y7	Z7	X8	Y8	Z8	X9	Y9	Z9	X10	Y10	Z10	X11	Y11	Z11	X12	Y12	Z12	X13	Y13	Z13	X14	Y14	Z14	X15	Y15	Z15	X16	Y16	Z16	X17	Y17	Z17	X18	Y18	Z18	X19	Y19	Z19	X20	Y20	Z20	X21	Y21	Z21	X22	Y22	Z22	X23	Y23	Z23	X24	Y24	Z24	X25	Y25	Z25	X26	Y26	Z26	X27	Y27	Z27	
65	1.1016949152542372	0.42827977451924715	0.6983048339501946	0.27536185203722713	0.38284543508168234	0.909674334551916	0.7033616936128142	0.29993192733945173	1.0884683714389523	1.1193918190223764	0.27470700067124043	0.8107647078292928	1.1908975727843076	0.3538679334166741	0.8382064774301433	1.1878359581057263	0.27851562402945407	1.1793660962686272	1.1770764956766473	0.19129937642104808	0.7497718940837086	0.2552211100583386	0.15811192000046398	0.897044726806579	0.6853440110625446	0.12101958291683912	1.0340355754101116	1.0854442038867647	0.1376442999023109	0.8573178865226647	1.1844208683673223	0.07259824356151375	0.9028643061681134	1.167523225476322	0.13407594104992224	1.1191630562103212	1.130678980069173	0.3805506749436228	0.5410636305135107	-0.3663314033592309	0.4040291937363615	0.35240040721496635	-0.6161996491479852	0.3802719283779178	0.3705111517479227	-0.437197612850047	0.5456566504667687	0.5726683088752723	-0.24958684006558843	0.507368058776883	0.5723959534764477	0.0584313295449561	0.3605677324824705	0.5048606327318439	0.2557698181758517	0.30970597121903737	0.5149751873162665	0.319331562100032	0.28339917377057455	0.5573232451032304	0.35068228718345207	0.2724393608291275	0.6062971547531979	0.3524917795958943	0.21033532060029772	0.6032375981053021	-0.31427517395525195	0.13413031955488416	0.6257529023449666	-0.01747587680255101	0.2169444476478961	0.5460718458809932	0.22459383967074692	0.3207445740401919	0.5327900634505539	0.27947661474104996	0.3086065814693675	0.5421498250837721	0.3330374427489013	0.27428989472727744	0.5579914905345486	0.3534762806140989
66	1.11864406779661	0.4282474474999723	0.6981922779419789	0.2752900411679193	0.3826875260800566	0.9091908301534122	0.7028653578813265	0.2998327902027634	1.0889074306240532	1.1195451760635406	0.27462727268833254	0.8108732023340854	1.191590808476632	0.35388935602323696	0.8378671888173344	1.1877426929270276	0.2786136800160272	1.1773041790947076	1.1786577483246992	0.19128127423022123	0.7488542835678862	0.25318649131501875	0.15810769040832323	0.8970276606805615	0.6853535755175135	0.12104151673640275	1.0337562251729644	1.0843920471667838	0.13768459851792947	0.8575001274857501	1.1855694276133255	0.07263484934221444	0.9026937829398387	1.1674556169551544	0.1341421690752365	1.119305065776298	1.1307717863358662	0.38048299379271827	0.5411076731327179	-0.36641211406850954	0.40190556441734376	0.3486464294103511	-0.6150640389849193	0.38008141340542345	0.3696091029806131	-0.4350716184974686	0.5456844698780033	0.5726422554020395	-0.24948182935075058	0.5061667616137594	0.5721816707851616	0.05832996109314828	0.3607183719424607	0.5051156886021007	0.25579821293040694	0.30755703505237175	0.5155542959214854	0.31924193893313946	0.2835404024727174	0.5570792114718038	0.35056129941109127	0.27248096606382816	0.6024234716355101	0.35240068243478756	0.21033647966290991	0.6032098116254854	-0.3142861480807463	0.13594351011434055	0.6261574078096382	-0.016413560689921756	0.21589725463210818	0.5453148856479322	0.22298529742233134	0.3183769531070104	0.5313084427677287	0.27992874328555695	0.30726295668871273	0.5421872496794918	0.3337765435702006	0.2742821171840857	0.5578912972767073	0.35374285425432334
67	1.1355932203389831	0.4285935502460492	0.6979460820723649	0.27522737867866653	0.3825277439483378	0.9089085590272357	0.7027463713108187	0.29989297844744506	1.0886352505373023	1.1194919078303007	0.2746144060082056	0.810706452300504	1.191912416447036	0.3539407289754915	0.8377659937667798	1.187760572490754	0.27960478189396576	1.1722217743792889	1.1789735329491298	0.1916207628888036	0.7482898334474058	0.2519211550413044	0.15809639612935233	0.8970126569216154	0.6854055809927642	0.12103595887151873	1.033562809854814	1.0839270691332554	0.13763966081623502	0.8571210237058496	1.1854408322307957	0.07264765036814863	0.9025893085890907	1.1674101321142805	0.13411932965165166	1.1194515968645686	1.1307336125893168	0.38049858944765824	0.5407282362604662	-0.3665264265107743	0.40063697434373535	0.34572625452774686	-0.6141888596051632	0.3799383973799422	0.3655899067355878	-0.4323182601809391	0.545820765710606	0.5728313026877099	-0.24947866652806314	0.5056361537490681	0.5719089308816478	0.05831072811208546	0.3608707569971093	0.5052250370348358	0.25577960030526814	0.30540062817652086	0.5160969502724363	0.319321803360692	0.2836248220112404	0.5569089091737283	0.35050014328801593	0.27250998400912035	0.6009097900066336	0.35237556720577273	0.2103288625847251	0.6031549155794067	-0.3142798652328145	0.1369894900069294	0.6267285265003179	-0.016083648595607788	0.21447040158117964	0.5439982831486297	0.22050623382291915	0.3161347821885955	0.5300481144008001	0.27948736714472044	0.3055040842904064	0.5420029405913663	0.3344469603332885	0.27436079229406346	0.5579469205424367	0.35379986309905653
68	1.152542372881356	0.4295631546537781	0.6975454065398417	0.2752317586439216	0.3824313563391717	0.9088705763291659	0.7023302278051151	0.3004645539282498	1.0861163991482143	1.1188892313131855	0.27475301605752017	0.8103374266258303	1.191478012385864	0.3539954231417377	0.8377782771649825	1.187851728411008	0.2810829975444001	1.1657216618381396	1.178358969584728	0.19254954278995592	0.7483343251692076	0.25151857874945105	0.15807942249017998	0.8969936818601478	0.6854622713587464	0.12101231833748718	1.033545587040963	1.083888831555986	0.13753394716830045	0.8563194956878116	1.1841964544662054	0.07266079857770937	0.9025669950797495	1.167406457912466	0.1340562436814941	1.119705964860101	1.1302142661870183	0.3808832492742466	0.5392049413898956	-0.3665760390289141	0.3999897750714551	0.3435832315907646	-0.613579259305038	0.3798489674658971	0.35859566696186984	-0.42924833395699624	0.545918136776764	0.5729265874595756	-0.2494520831087614	0.5055756672512592	0.5717017218431429	0.058391634340311416	0.3608359044832703	0.5050445594650423	0.2557988474985397	0.30411043878862615	0.5163732522764288	0.31958370204932895	0.28362114672907995	0.5568431042077242	0.35054067462888217	0.2725391526354548	0.6008502462936314	0.35239439384751803	0.21031330622333705	0.6030998929422076	-0.3142575894101776	0.1372960260989098	0.6269107426413679	-0.016164811540054596	0.2132955954747112	0.54280468192216	0.21865031082199304	0.31464915098513985	0.5286500252766773	0.278684554511173	0.3040891905544767	0.5416580079617703	0.3347340430627042	0.27436999452605837	0.558314003104416	0.3537691924150185
69	1.1694915254237288	0.43089279661104835	0.6973982389757769	0.2753163155006839	0.38250762983325437	0.9092522425434879	0.7013401298534957	0.30166629492290853	1.0808599682775455	1.1176572121259682	0.2749371330127528	0.8100503988918101	1.1907306952294796	0.35403307174522747	0.8378403006108466	1.1878146675745453	0.282281273898986	1.1610364306773437	1.1770352587252773	0.1938121634959462	0.7487183885724894	0.25154540171376516	0.15804607024915043	0.8970042342822651	0.6854779861393223	0.12099313374750512	1.0336455284196766	1.0839675327636893	0.137433259664625	0.8555993725197003	1.1829240763380615	0.07269910078783309	0.9026364078185124	1.1674397713655205	0.13400768458107187	1.1200788418802035	1.128986562853176	0.38185993543405594	0.5357800661024562	-0.3661504866755764	0.39914112482006564	0.3405378607963547	-0.6127469219579595	0.37978842192477047	0.3515596075913464	-0.4266316420625411	0.5459521572202761	0.5729378217955342	-0.24940674331738075	0.5056638626052571	0.5716366474879212	0.0585428592959073	0.3601891757585247	0.5047036168008391	0.2560984627747104	0.3037206744171594	0.516511094832977	0.31996467067801604	0.2835531375357766	0.5568742563982674	0.35069277184913006	0.27256017049699516	0.6011179460346194	0.35242227975947094	0.21030038348460667	0.6030682234601346	-0.31423366790191787	0.13724561549234596	0.6268504090395778	-0.016292860353518627	0.2126331761742154	0.5425078322678364	0.21903546827944098	0.3139986007210695	0.5277019548934376	0.27814863409882656	0.30344563198542274	0.5415680618623413	0.33502219187698806	0.2739821503267845	0.5598738936194955	0.353770120764781
70	1.1864406779661016	0.43194569524097604	0.6986341172415117	0.2754352241763404	0.38295230818027315	0.9099169192482284	0.7003980241449922	0.30279115172006105	1.075966682087456	1.1165440351832718	0.2750404279378317	0.8100026661604454	1.1903928157346992	0.35405655196002345	0.838082162680369	1.1873392994880279	0.2827983302755616	1.1595369718603925	1.1754658979052703	0.19479670920388528	0.7490342442502894	0.25158636121941624	0.15799127132646434	0.8970891518070574	0.6854580247828672	0.12100923420696394	1.0337367315440715	1.0840219016217179	0.13742152327334345	0.855589533938931	1.1828490907854483	0.07274555464762843	0.902703124115851	1.1674643932831796	0.13399637073061804	1.1203760482965568	1.127533949653475	0.38315197493556896	0.5313026783736964	-0.3645418855989132	0.3976788072743134	0.33581996782927254	-0.6113718266592099	0.37972013871132454	0.3475821309944731	-0.4246948591921636	0.5459497231946137	0.5729121893541181	-0.24934877746071385	0.505770505106899	0.5715858289458922	0.05867216076666598	0.3586234020711182	0.5047480255080538	0.2568564450035411	0.3037145989626873	0.5166811162534284	0.320512058885833	0.28342460189126667	0.5570478274099643	0.3510435767000981	0.27254655603290034	0.6012560835889553	0.35242009795569973	0.21030315180384065	0.603042618538895	-0.3142225705010758	0.13715926022086636	0.6268228187271967	-0.016314822011970546	0.21232400000440071	0.5432417575724795	0.22157929427548465	0.31384887197658334	0.5277942203220569	0.2780128476168635	0.30335140702137686	0.5420227561778866	0.33551255419829656	0.27295190729523383	0.5634794137364116	0.3538481456953795
